<?xml version="1.0" encoding="UTF-8"?>
<svg version="1.1" xmlns="http://www.w3.org/2000/svg" width="94" height="94">
<path d="M0 0 C31.02 0 62.04 0 94 0 C94 31.02 94 62.04 94 94 C62.98 94 31.96 94 0 94 C0 62.98 0 31.96 0 0 Z " fill="#FEFEFE" transform="translate(0,0)"/>
<path d="M0 0 C5.08043329 1.84192828 9.63076295 4.81185674 14.23486328 7.60009766 C15.29769531 8.22980469 16.36052734 8.85951172 17.45556641 9.50830078 C20.375155 11.24619456 23.27676606 13.01009967 26.17236328 14.78759766 C27.18206177 15.39172485 27.18206177 15.39172485 28.2121582 16.00805664 C31.34471663 17.95413221 32.10076741 18.58034646 33.35986328 22.22509766 C33.17236328 25.78759766 33.17236328 25.78759766 31.04443359 28.2746582 C28.16021077 30.79823059 25.3575737 32.66168672 22.03173828 34.55712891 C21.46408752 34.88299484 20.89643677 35.20886078 20.31158447 35.54460144 C19.12375218 36.2246296 17.93375577 36.9008906 16.74169922 37.57348633 C14.90920067 38.60752503 13.0833248 39.65254207 11.25830078 40.69970703 C2.34705128 45.78759766 2.34705128 45.78759766 1.17236328 45.78759766 C1.17236328 42.48759766 1.17236328 39.18759766 1.17236328 35.78759766 C-3.77763672 38.26259766 -3.77763672 38.26259766 -8.82763672 40.78759766 C-8.82763672 37.15759766 -8.82763672 33.52759766 -8.82763672 29.78759766 C-13.77763672 32.26259766 -13.77763672 32.26259766 -18.82763672 34.78759766 C-19.29821191 30.68967203 -19.53816494 26.86518124 -18.82763672 22.78759766 C-16.53363089 20.22648156 -14.06023627 18.90407782 -10.82763672 17.78759766 C-10.16763672 17.78759766 -9.50763672 17.78759766 -8.82763672 17.78759766 C-8.49763672 21.08759766 -8.16763672 24.38759766 -7.82763672 27.78759766 C-6.71388672 27.12759766 -5.60013672 26.46759766 -4.45263672 25.78759766 C-1.07763672 23.78759766 -1.07763672 23.78759766 1.17236328 23.78759766 C1.50236328 27.08759766 1.83236328 30.38759766 2.17236328 33.78759766 C6.55894222 31.78558936 6.55894222 31.78558936 10.17236328 28.78759766 C11.20749202 24.96888438 11.17236328 21.79737586 11.17236328 17.78759766 C6.22236328 20.26259766 6.22236328 20.26259766 1.17236328 22.78759766 C1.17236328 19.15759766 1.17236328 15.52759766 1.17236328 11.78759766 C-0.10638672 12.61259766 -1.38513672 13.43759766 -2.70263672 14.28759766 C-6.57763672 16.78759766 -6.57763672 16.78759766 -8.82763672 16.78759766 C-8.93595841 14.70541403 -9.01337213 12.62160636 -9.07763672 10.53759766 C-9.12404297 9.37744141 -9.17044922 8.21728516 -9.21826172 7.02197266 C-8.82763672 3.78759766 -8.82763672 3.78759766 -7.24951172 1.30322266 C-4.58009937 -0.36731281 -3.08059269 -0.65291154 0 0 Z " fill="#2E8BBD" transform="translate(39.82763671875,19.21240234375)"/>
<path d="M0 0 C0 3.63 0 7.26 0 11 C1.27875 10.175 2.5575 9.35 3.875 8.5 C7.75 6 7.75 6 10 6 C10.33 9.3 10.66 12.6 11 16 C12.11375 15.34 13.2275 14.68 14.375 14 C17.75 12 17.75 12 20 12 C20.54794334 15.80177972 20.78758851 19.22268404 20 23 C17.36904555 25.76145814 14.46685432 27.44679683 11 29 C10.67 29 10.34 29 10 29 C10 25.37 10 21.74 10 18 C5.05 20.475 5.05 20.475 0 23 C0 19.37 0 15.74 0 12 C-1.27875 12.825 -2.5575 13.65 -3.875 14.5 C-7.75 17 -7.75 17 -10 17 C-10 13.04 -10 9.08 -10 5 C-1.125 0 -1.125 0 0 0 Z " fill="#F5B61D" transform="translate(31,25)"/>
<path d="M0 0 C0.33 3.3 0.66 6.6 1 10 C1.763125 9.505 2.52625 9.01 3.3125 8.5 C6 7 6 7 9 7 C9 10.63 9 14.26 9 18 C6.03 19.65 3.06 21.3 0 23 C0 19.37 0 15.74 0 12 C-4.95 14.475 -4.95 14.475 -10 17 C-10.47057519 12.90207437 -10.71052822 9.07758358 -10 5 C-7.35756736 2.04988685 -4.0345982 0 0 0 Z " fill="#377AB2" transform="translate(31,37)"/>
<path d="M0 0 C0.66 0 1.32 0 2 0 C2.33 3.3 2.66 6.6 3 10 C4.11375 9.34 5.2275 8.68 6.375 8 C9.75 6 9.75 6 12 6 C12.54794334 9.80177972 12.78758851 13.22268404 12 17 C9.36904555 19.76145814 6.46685432 21.44679683 3 23 C2.67 23 2.34 23 2 23 C1.34 15.41 0.68 7.82 0 0 Z " fill="#ECBC24" transform="translate(39,31)"/>
<path d="M0 0 C0.33 3.63 0.66 7.26 1 11 C-3.75 14 -3.75 14 -6 14 C-6 10.04 -6 6.08 -6 2 C-2 0 -2 0 0 0 Z " fill="#F7C41D" transform="translate(27,28)"/>
<path d="M0 0 C0.33 3.96 0.66 7.92 1 12 C-0.65 12.33 -2.3 12.66 -4 13 C-4.33 9.37 -4.66 5.74 -5 2 C-1 0 -1 0 0 0 Z " fill="#ECD629" transform="translate(31,25)"/>
<path d="M0 0 C0 3.63 0 7.26 0 11 C-1.98 11.99 -1.98 11.99 -4 13 C-4 9.04 -4 5.08 -4 1 C-2 0 -2 0 0 0 Z " fill="#DCD332" transform="translate(51,37)"/>
<path d="M0 0 C0.66 0 1.32 0 2 0 C2 3.63 2 7.26 2 11 C0.68 11.33 -0.64 11.66 -2 12 C-2.05422947 10.5629191 -2.09289723 9.12524538 -2.125 7.6875 C-2.14820313 6.88699219 -2.17140625 6.08648437 -2.1953125 5.26171875 C-2 3 -2 3 0 0 Z " fill="#F7D91B" transform="translate(38,32)"/>
<path d="M0 0 C0.99 0 1.98 0 3 0 C3 3.63 3 7.26 3 11 C2.01 11.33 1.02 11.66 0 12 C0 8.04 0 4.08 0 0 Z " fill="#F7AE1F" transform="translate(21,30)"/>
<path d="M0 0 C0.99 0 1.98 0 3 0 C3 3.63 3 7.26 3 11 C2.01 11.33 1.02 11.66 0 12 C0 8.04 0 4.08 0 0 Z " fill="#3864AC" transform="translate(21,42)"/>
<path d="M0 0 C0.66 0 1.32 0 2 0 C2.33 3.63 2.66 7.26 3 11 C2.01 11.33 1.02 11.66 0 12 C0 8.04 0 4.08 0 0 Z " fill="#3B65AE" transform="translate(31,48)"/>
</svg>
